<mxfile host="Electron" modified="2024-12-23T20:22:03.907Z" agent="Mozilla/5.0 (Windows NT 10.0; Win64; x64) AppleWebKit/537.36 (KHTML, like Gecko) draw.io/21.7.5 Chrome/114.0.5735.289 Electron/25.8.1 Safari/537.36" etag="nxlBJQZSgsKCAPWfT2xg" version="21.7.5" type="device">
  <diagram name="Страница — 1" id="bxUgvntWNvh68i6PkKAu">
    <mxGraphModel dx="1022" dy="600" grid="1" gridSize="10" guides="1" tooltips="1" connect="1" arrows="1" fold="1" page="1" pageScale="1" pageWidth="827" pageHeight="1169" math="0" shadow="0">
      <root>
        <mxCell id="0" />
        <mxCell id="1" parent="0" />
        <mxCell id="YBY9wc6p7TvvccXJDnPj-1" value="Блок &quot;СЛОЖЕНИЕ&quot;" style="rounded=0;whiteSpace=wrap;html=1;" vertex="1" parent="1">
          <mxGeometry x="440" y="240" width="80" height="120" as="geometry" />
        </mxCell>
        <mxCell id="YBY9wc6p7TvvccXJDnPj-2" value="Блок &quot;ИЛИ&quot;" style="rounded=0;whiteSpace=wrap;html=1;" vertex="1" parent="1">
          <mxGeometry x="440" y="400" width="80" height="120" as="geometry" />
        </mxCell>
        <mxCell id="YBY9wc6p7TvvccXJDnPj-3" value="" style="shape=flexArrow;endArrow=classic;html=1;rounded=0;entryX=0;entryY=0.75;entryDx=0;entryDy=0;" edge="1" parent="1" target="YBY9wc6p7TvvccXJDnPj-1">
          <mxGeometry width="50" height="50" relative="1" as="geometry">
            <mxPoint x="320" y="330" as="sourcePoint" />
            <mxPoint x="370" y="280" as="targetPoint" />
          </mxGeometry>
        </mxCell>
        <mxCell id="YBY9wc6p7TvvccXJDnPj-4" value="" style="shape=flexArrow;endArrow=classic;html=1;rounded=0;entryX=0;entryY=0.75;entryDx=0;entryDy=0;" edge="1" parent="1" target="YBY9wc6p7TvvccXJDnPj-2">
          <mxGeometry width="50" height="50" relative="1" as="geometry">
            <mxPoint x="320" y="490" as="sourcePoint" />
            <mxPoint x="430" y="370" as="targetPoint" />
          </mxGeometry>
        </mxCell>
        <mxCell id="YBY9wc6p7TvvccXJDnPj-5" value="" style="shape=flexArrow;endArrow=classic;html=1;rounded=0;entryX=0;entryY=0.25;entryDx=0;entryDy=0;" edge="1" parent="1" target="YBY9wc6p7TvvccXJDnPj-1">
          <mxGeometry width="50" height="50" relative="1" as="geometry">
            <mxPoint x="320" y="270" as="sourcePoint" />
            <mxPoint x="430" y="370" as="targetPoint" />
          </mxGeometry>
        </mxCell>
        <mxCell id="YBY9wc6p7TvvccXJDnPj-6" value="" style="shape=flexArrow;endArrow=classic;html=1;rounded=0;entryX=0;entryY=0.25;entryDx=0;entryDy=0;" edge="1" parent="1" target="YBY9wc6p7TvvccXJDnPj-2">
          <mxGeometry width="50" height="50" relative="1" as="geometry">
            <mxPoint x="320" y="430" as="sourcePoint" />
            <mxPoint x="430" y="370" as="targetPoint" />
          </mxGeometry>
        </mxCell>
        <mxCell id="YBY9wc6p7TvvccXJDnPj-8" value="Мультиплексор" style="rounded=0;whiteSpace=wrap;html=1;" vertex="1" parent="1">
          <mxGeometry x="680" y="320" width="120" height="120" as="geometry" />
        </mxCell>
        <mxCell id="YBY9wc6p7TvvccXJDnPj-9" value="" style="shape=flexArrow;endArrow=classic;html=1;rounded=0;exitX=1;exitY=0.5;exitDx=0;exitDy=0;entryX=0;entryY=0.25;entryDx=0;entryDy=0;" edge="1" parent="1" source="YBY9wc6p7TvvccXJDnPj-1" target="YBY9wc6p7TvvccXJDnPj-8">
          <mxGeometry width="50" height="50" relative="1" as="geometry">
            <mxPoint x="560" y="460" as="sourcePoint" />
            <mxPoint x="610" y="410" as="targetPoint" />
            <Array as="points">
              <mxPoint x="600" y="300" />
              <mxPoint x="600" y="350" />
            </Array>
          </mxGeometry>
        </mxCell>
        <mxCell id="YBY9wc6p7TvvccXJDnPj-10" value="" style="shape=flexArrow;endArrow=classic;html=1;rounded=0;exitX=1;exitY=0.5;exitDx=0;exitDy=0;entryX=0;entryY=0.75;entryDx=0;entryDy=0;" edge="1" parent="1" source="YBY9wc6p7TvvccXJDnPj-2" target="YBY9wc6p7TvvccXJDnPj-8">
          <mxGeometry width="50" height="50" relative="1" as="geometry">
            <mxPoint x="560" y="460" as="sourcePoint" />
            <mxPoint x="610" y="410" as="targetPoint" />
            <Array as="points">
              <mxPoint x="600" y="460" />
              <mxPoint x="600" y="410" />
            </Array>
          </mxGeometry>
        </mxCell>
        <mxCell id="YBY9wc6p7TvvccXJDnPj-11" value="A" style="text;html=1;strokeColor=none;fillColor=none;align=center;verticalAlign=middle;whiteSpace=wrap;rounded=0;" vertex="1" parent="1">
          <mxGeometry x="290" y="240" width="60" height="30" as="geometry" />
        </mxCell>
        <mxCell id="YBY9wc6p7TvvccXJDnPj-12" value="A" style="text;html=1;strokeColor=none;fillColor=none;align=center;verticalAlign=middle;whiteSpace=wrap;rounded=0;" vertex="1" parent="1">
          <mxGeometry x="280" y="400" width="60" height="30" as="geometry" />
        </mxCell>
        <mxCell id="YBY9wc6p7TvvccXJDnPj-13" value="B" style="text;html=1;strokeColor=none;fillColor=none;align=center;verticalAlign=middle;whiteSpace=wrap;rounded=0;" vertex="1" parent="1">
          <mxGeometry x="290" y="300" width="60" height="30" as="geometry" />
        </mxCell>
        <mxCell id="YBY9wc6p7TvvccXJDnPj-14" value="B" style="text;html=1;strokeColor=none;fillColor=none;align=center;verticalAlign=middle;whiteSpace=wrap;rounded=0;" vertex="1" parent="1">
          <mxGeometry x="280" y="460" width="60" height="30" as="geometry" />
        </mxCell>
        <mxCell id="YBY9wc6p7TvvccXJDnPj-15" value="Результат сложения" style="text;html=1;strokeColor=none;fillColor=none;align=center;verticalAlign=middle;whiteSpace=wrap;rounded=0;" vertex="1" parent="1">
          <mxGeometry x="540" y="260" width="60" height="30" as="geometry" />
        </mxCell>
        <mxCell id="YBY9wc6p7TvvccXJDnPj-16" value="Результат ИЛИ" style="text;html=1;strokeColor=none;fillColor=none;align=center;verticalAlign=middle;whiteSpace=wrap;rounded=0;" vertex="1" parent="1">
          <mxGeometry x="540" y="470" width="60" height="30" as="geometry" />
        </mxCell>
        <mxCell id="YBY9wc6p7TvvccXJDnPj-17" value="" style="shape=flexArrow;endArrow=classic;html=1;rounded=0;exitX=1;exitY=0.5;exitDx=0;exitDy=0;" edge="1" parent="1" source="YBY9wc6p7TvvccXJDnPj-8">
          <mxGeometry width="50" height="50" relative="1" as="geometry">
            <mxPoint x="900" y="390" as="sourcePoint" />
            <mxPoint x="880" y="380" as="targetPoint" />
          </mxGeometry>
        </mxCell>
        <mxCell id="YBY9wc6p7TvvccXJDnPj-18" value="C" style="text;html=1;strokeColor=none;fillColor=none;align=center;verticalAlign=middle;whiteSpace=wrap;rounded=0;" vertex="1" parent="1">
          <mxGeometry x="850" y="340" width="60" height="30" as="geometry" />
        </mxCell>
        <mxCell id="YBY9wc6p7TvvccXJDnPj-19" value="" style="endArrow=classic;html=1;rounded=0;entryX=0.5;entryY=0;entryDx=0;entryDy=0;" edge="1" parent="1" target="YBY9wc6p7TvvccXJDnPj-8">
          <mxGeometry width="50" height="50" relative="1" as="geometry">
            <mxPoint x="740" y="240" as="sourcePoint" />
            <mxPoint x="740" y="210" as="targetPoint" />
          </mxGeometry>
        </mxCell>
        <mxCell id="YBY9wc6p7TvvccXJDnPj-20" value="Выбранная операция (y2)" style="text;html=1;strokeColor=none;fillColor=none;align=center;verticalAlign=middle;whiteSpace=wrap;rounded=0;" vertex="1" parent="1">
          <mxGeometry x="710" y="200" width="60" height="30" as="geometry" />
        </mxCell>
        <mxCell id="YBY9wc6p7TvvccXJDnPj-21" value="(на регистр результата)" style="text;html=1;strokeColor=none;fillColor=none;align=center;verticalAlign=middle;whiteSpace=wrap;rounded=0;" vertex="1" parent="1">
          <mxGeometry x="850" y="400" width="60" height="30" as="geometry" />
        </mxCell>
      </root>
    </mxGraphModel>
  </diagram>
</mxfile>
